<svg xmlns="http://www.w3.org/2000/svg" viewBox="0 0 1115.5 120.42"><g class="stroke-1"><path d="M1050.66,396q-3.06,0-6.06-.3c-33-3.35-53.8-32.08-73.89-59.87C952.93,311.27,936.12,288,913.39,288c-.41,0-.83,0-1.24,0-22.47.83-36.69,23.5-51.74,47.5-16.19,25.81-32.93,52.5-62.08,54.9-1.35.11-2.68.16-4,.16-28.9,0-51.07-26-72.55-51.13-22.09-25.87-44.91-52.64-74.62-51.43-27.89,1.12-46.45,26.43-64.41,50.9C564.18,364.25,545,390.43,515,390.45h0c-30.49,0-50.49-26.89-69.83-52.89C426.2,312.1,408.31,288,382,288c-25.29,0-42.49,22.73-60.69,46.79-19.41,25.65-39.49,52.18-71.89,55.6-20.54,2.17-42.58-5.68-65.48-23.32-22.4-17.24-46.37-44.43-71.24-80.81a4,4,0,1,1,6.6-4.51c48.38,70.75,91.87,104.63,129.28,100.68,28.95-3.05,48-28.17,66.35-52.47,18.58-24.56,37.8-50,67.07-50h0c30.33,0,50.27,26.82,69.56,52.75,19,25.54,36.94,49.66,63.41,49.66h0c25.92,0,43.11-23.44,61.3-48.24,19.08-26,38.8-52.89,70.54-54.16,33.57-1.36,57.7,26.9,81,54.22,22.13,25.92,43,50.4,69.81,48.19,25.16-2.06,40.82-27,56-51.17,15.5-24.71,31.52-50.26,58.22-51.24l1.61,0c26.75,0,44.72,24.86,63.73,51.15s38.76,53.61,68.21,56.6c36.81,3.72,79.95-31.91,128.25-105.91a4,4,0,1,1,6.7,4.37c-27.64,42.35-54.07,72.81-78.54,90.51C1084.09,389.56,1066.92,396,1050.66,396Z" transform="translate(-112 -280)"/></g><g class="stroke-2"><path d="M1068.16,399.19c-2,0-4.06-.11-6.07-.31-33-3.34-53.8-32.08-73.89-59.87-18.1-25-35.19-48.67-58.56-47.81-22.46.83-36.68,23.49-51.74,47.5-16.19,25.81-32.93,52.5-62.08,54.89-1.34.11-2.68.17-4,.17-28.91,0-51.08-26-72.55-51.14-22.09-25.87-44.92-52.63-74.62-51.43-27.9,1.13-46.46,26.43-64.41,50.9-18.57,25.32-37.77,51.5-67.75,51.52h0c-30.48,0-50.48-26.89-69.82-52.89C443.7,315.25,425.8,291.2,399.5,291.2c-25.3,0-42.49,22.72-60.69,46.78-19.42,25.66-39.49,52.19-71.89,55.6-20.55,2.17-42.58-5.68-65.48-23.31C179,353,155.07,325.83,130.19,289.46a4,4,0,0,1,6.61-4.52c48.38,70.75,91.88,104.62,129.28,100.69,28.95-3.05,48-28.18,66.35-52.48,18.58-24.56,37.79-49.95,67.06-49.95h0c30.32,0,50.27,26.81,69.56,52.74,19,25.54,36.94,49.67,63.4,49.67h0c25.93,0,43.12-23.45,61.31-48.25,19.07-26,38.79-52.88,70.54-54.16,33.57-1.35,57.69,26.91,81,54.23,22.12,25.91,43,50.37,69.81,48.19,25.15-2.06,40.81-27,56-51.18,15.49-24.7,31.52-50.25,58.22-51.24,27.63-1,45.95,24.31,65.33,51.13,19.06,26.35,38.77,53.61,68.22,56.59,36.8,3.74,79.95-31.9,128.25-105.91a4,4,0,0,1,6.7,4.37c-27.64,42.36-54.07,72.81-78.54,90.52C1101.59,392.72,1084.41,399.19,1068.16,399.19Z" transform="translate(-112 -280)"/></g><g class="stroke-3"><path d="M1097.16,400.42a58.33,58.33,0,0,1-6.07-.31c-33-3.34-53.57-32.1-73.41-59.91-17.53-24.57-34.1-47.8-56.8-47.8l-1.24,0c-22.48.83-36.94,23.51-52.25,47.53C891,365.76,874,392.43,844.82,394.82c-1.34.11-2.67.17-4,.17-28.9,0-51.08-26-72.55-51.13-22.09-25.88-44.93-52.63-74.62-51.43-27.9,1.12-46.46,26.42-64.41,50.9-18.57,25.31-37.77,51.49-67.75,51.51h0C531,394.84,511,368,491.64,342c-18.94-25.47-36.84-49.52-63.14-49.52-25.3,0-42.49,22.72-60.69,46.78-19.42,25.66-39.49,52.19-71.89,55.61-20.55,2.16-42.58-5.69-65.48-23.32-22.4-17.25-46.37-44.43-71.25-80.81a4,4,0,0,1,6.61-4.52c48.38,70.75,91.87,104.62,129.28,100.69,28.95-3.05,48-28.18,66.35-52.47,18.58-24.56,37.79-50,67.06-50h0c30.32,0,50.27,26.82,69.56,52.75,19,25.53,36.94,49.66,63.4,49.66h0c25.93,0,43.12-23.45,61.31-48.25,19.07-26,38.79-52.88,70.53-54.16,33.62-1.35,57.7,26.91,81,54.23,22.12,25.91,43,50.37,69.81,48.19,25.17-2.06,41.08-27,56.48-51.19,15.74-24.7,32-50.24,58.7-51.23,27.65-1,45.71,24.31,64.84,51.12,18.81,26.36,38.26,53.62,67.71,56.61,36.81,3.73,79.95-31.91,128.25-105.92a4,4,0,0,1,6.7,4.38c-27.64,42.35-54.07,72.8-78.54,90.51C1130.59,394,1113.41,400.42,1097.16,400.42Z" transform="translate(-112 -280)"/></g></svg>